<svg id="Calque_1" data-name="Calque 1" xmlns="http://www.w3.org/2000/svg" xmlns:xlink="http://www.w3.org/1999/xlink" viewBox="0 0 1920 1080"><defs><style>.cls-1{fill:#808ec6;}.cls-2{fill:url(#Dégradé_sans_nom_29);}.cls-3{fill:url(#Dégradé_sans_nom_29-2);}.cls-4{fill:url(#Dégradé_sans_nom_29-3);}.cls-5{fill:url(#Dégradé_sans_nom_29-4);}</style><linearGradient id="Dégradé_sans_nom_29" x1="818.27" y1="664.67" x2="818.27" y2="416.05" gradientUnits="userSpaceOnUse"><stop offset="0" stop-color="#ff79da"/><stop offset="1" stop-color="#9356dc"/></linearGradient><linearGradient id="Dégradé_sans_nom_29-2" x1="1103.23" y1="369.45" x2="1103.23" y2="635.23" xlink:href="#Dégradé_sans_nom_29"/><linearGradient id="Dégradé_sans_nom_29-3" x1="961.5" y1="392.87" x2="961.5" y2="622.22" xlink:href="#Dégradé_sans_nom_29"/><linearGradient id="Dégradé_sans_nom_29-4" x1="961.38" y1="483.96" x2="961.38" y2="572.05" xlink:href="#Dégradé_sans_nom_29"/></defs><polygon class="cls-1" points="829.88 466.04 829.88 466.02 829.88 466.06 829.88 466.04"/><path class="cls-2" d="M821.38,562.13c-.8-26.27-.56-54.17-.45-63.24a.8.8,0,0,0,0-1.6c0-.36,0-.64,0-.87a.8.8,0,0,0,.74-.8.79.79,0,0,0-.31-.62,4,4,0,0,0,.87-.44c.75-.78,5.85-4,9.33-7.33s2.56-8.92,2.33-13.61-2.94-57.33-4.34-57.34-.66,53-.61,57.11v0h0v.23l-.05,0a1.85,1.85,0,0,1-1.89,1.57,1.92,1.92,0,0,1-1.8-1.2,1.59,1.59,0,0,1-.16-.69v-7.74c-.63-14.75-2.23-49.51-3.14-49.51s-1,24.47-1,41.12l0,.22.08,16.1a1.86,1.86,0,0,1-1.94,1.77,2.23,2.23,0,0,1-2.16-1.2,1.14,1.14,0,0,1-.1-.45l-.09-1.51c-.14-2.78-2-55.83-2.73-55.83s-2.6,56-2.6,56a1.56,1.56,0,0,1,0,.26v.77l0,.09,0,.1a1.95,1.95,0,0,1-3.88,0s1-57.21-.43-57.21c-1.62,0-4.22,45.51-4.7,56.43s.45,13.17,4.15,16.3c2.7,2.28,5.65,4.55,7,5.62a3.89,3.89,0,0,0,.83.45.79.79,0,0,0-.23.55.83.83,0,0,0,.82.82h0c0,.22,0,.5,0,.84h0a.82.82,0,0,0-.82.81.81.81,0,0,0,.8.81c-.07,9.16.28,37.48-.4,64-.63,24.34-2.79,47.16-3.13,52.24-.8,11.81-7.45,29.82-7.45,37a12.28,12.28,0,0,0,12.46,12.49h2.73c6.89,0,12.87-4.08,12.88-12.28s-6.6-25.25-7.37-37.54C824.46,610.34,822.14,587,821.38,562.13Z"/><path class="cls-3" d="M1112,560.27c0-12.76.1-19.69-.23-23.43a1,1,0,0,0,.79-1,1,1,0,0,0-1-1h-.06c0-.23-.1-.44-.16-.63l.07-.18h.15a1,1,0,0,0,1-1,1,1,0,0,0-.52-.85,69.64,69.64,0,0,0,2.45-12.8,376.45,376.45,0,0,0,1.07-55.27c-1.3-22.82-.19-48.77-1.78-49.57-10-5-22.11,15-24.61,46-2.29,28.47,6.9,66,8.44,72a.93.93,0,0,0-.15.48,1,1,0,0,0,1,1h.34a5.82,5.82,0,0,0-.22.81h-.12a1,1,0,0,0-1,1,1,1,0,0,0,.85,1c-.32,3.74-.22,10.67-.22,23.42,0,30.83-5.71,95.21-5.71,95.21a11.41,11.41,0,0,0,11.42,11.41h2.49a11.41,11.41,0,0,0,11.41-11.41S1112,591.13,1112,560.27Z"/><path class="cls-4" d="M961.5,431.17a109.19,109.19,0,1,0,109.19,109.19A109.2,109.2,0,0,0,961.5,431.17Zm72.5,108.5A78.7,78.7,0,0,1,1017.55,573a82.81,82.81,0,0,1-29.64,22,92.68,92.68,0,0,1-37.76,7.65q-32.19,0-47.71-12.74-15.3-13-15.29-34.28a78.47,78.47,0,0,1,1.85-16,74,74,0,0,1,16.68-32A84.23,84.23,0,0,1,936,485.93a95.2,95.2,0,0,1,38.45-7.88q31.5,0,46.33,12.74,15,12.75,15,33.36A74.49,74.49,0,0,1,1034,539.67Z"/><path class="cls-5" d="M973.78,498.67q-4.87,0-10.43,8.8Q958,516,950.61,540.13T943.2,574q0,5.09,1.62,6.95a6,6,0,0,0,4.4,1.62q4.88.47,10-8.34,5.34-8.8,13.21-34.28,7.17-22.47,7.18-32.66,0-4.86-1.62-6.72A4.9,4.9,0,0,0,973.78,498.67Z"/></svg>