<svg id="Calque_1" data-name="Calque 1" xmlns="http://www.w3.org/2000/svg" xmlns:xlink="http://www.w3.org/1999/xlink" viewBox="0 0 1920 1080"><defs><style>.cls-1{fill:#808ec6;}.cls-2{fill:url(#Dégradé_sans_nom_29);}.cls-3{fill:url(#Dégradé_sans_nom_29-2);}</style><linearGradient id="Dégradé_sans_nom_29" x1="961.5" y1="392.87" x2="961.5" y2="622.22" gradientUnits="userSpaceOnUse"><stop offset="0" stop-color="#ff79da"/><stop offset="1" stop-color="#9356dc"/></linearGradient><linearGradient id="Dégradé_sans_nom_29-2" x1="961.38" y1="483.96" x2="961.38" y2="572.05" xlink:href="#Dégradé_sans_nom_29"/></defs><polygon class="cls-1" points="829.88 466.04 829.88 466.02 829.88 466.06 829.88 466.04"/><path class="cls-2" d="M961.5,431.17a109.19,109.19,0,1,0,109.19,109.19A109.2,109.2,0,0,0,961.5,431.17Zm72.5,108.5A78.7,78.7,0,0,1,1017.55,573a82.81,82.81,0,0,1-29.64,22,92.68,92.68,0,0,1-37.76,7.65q-32.19,0-47.71-12.74-15.3-13-15.29-34.28a78.47,78.47,0,0,1,1.85-16,74,74,0,0,1,16.68-32A84.23,84.23,0,0,1,936,485.93a95.2,95.2,0,0,1,38.45-7.88q31.5,0,46.33,12.74,15,12.75,15,33.36A74.49,74.49,0,0,1,1034,539.67Z"/><path class="cls-3" d="M973.78,498.67q-4.87,0-10.43,8.8Q958,516,950.61,540.13T943.2,574q0,5.09,1.62,6.95a6,6,0,0,0,4.4,1.62q4.88.47,10-8.34,5.34-8.8,13.21-34.28,7.17-22.47,7.18-32.66,0-4.86-1.62-6.72A4.9,4.9,0,0,0,973.78,498.67Z"/></svg>