<svg id="Calque_1" data-name="Calque 1" xmlns="http://www.w3.org/2000/svg" xmlns:xlink="http://www.w3.org/1999/xlink" viewBox="0 0 1920 1080"><defs><style>.cls-1{fill:#808ec6;}.cls-2{fill:url(#Dégradé_sans_nom_29);}</style><linearGradient id="Dégradé_sans_nom_29" x1="818.27" y1="664.67" x2="818.27" y2="416.05" gradientUnits="userSpaceOnUse"><stop offset="0" stop-color="#ff79da"/><stop offset="1" stop-color="#9356dc"/></linearGradient></defs><polygon class="cls-1" points="829.88 466.04 829.88 466.02 829.88 466.06 829.88 466.04"/><path class="cls-2" d="M821.38,562.13c-.8-26.27-.56-54.17-.45-63.24a.8.8,0,0,0,0-1.6c0-.36,0-.64,0-.87a.8.8,0,0,0,.74-.8.79.79,0,0,0-.31-.62,4,4,0,0,0,.87-.44c.75-.78,5.85-4,9.33-7.33s2.56-8.92,2.33-13.61-2.94-57.33-4.34-57.34-.66,53-.61,57.11v0h0v.23l-.05,0a1.85,1.85,0,0,1-1.89,1.57,1.92,1.92,0,0,1-1.8-1.2,1.59,1.59,0,0,1-.16-.69v-7.74c-.63-14.75-2.23-49.51-3.14-49.51s-1,24.47-1,41.12l0,.22.08,16.1a1.86,1.86,0,0,1-1.94,1.77,2.23,2.23,0,0,1-2.16-1.2,1.14,1.14,0,0,1-.1-.45l-.09-1.51c-.14-2.78-2-55.83-2.73-55.83s-2.6,56-2.6,56a1.56,1.56,0,0,1,0,.26v.77l0,.09,0,.1a1.95,1.95,0,0,1-3.88,0s1-57.21-.43-57.21c-1.62,0-4.22,45.51-4.7,56.43s.45,13.17,4.15,16.3c2.7,2.28,5.65,4.55,7,5.62a3.89,3.89,0,0,0,.83.45.79.79,0,0,0-.23.55.83.83,0,0,0,.82.82h0c0,.22,0,.5,0,.84h0a.82.82,0,0,0-.82.81.81.81,0,0,0,.8.81c-.07,9.16.28,37.48-.4,64-.63,24.34-2.79,47.16-3.13,52.24-.8,11.81-7.45,29.82-7.45,37a12.28,12.28,0,0,0,12.46,12.49h2.73c6.89,0,12.87-4.08,12.88-12.28s-6.6-25.25-7.37-37.54C824.46,610.34,822.14,587,821.38,562.13Z"/></svg>