<svg id="Calque_1" data-name="Calque 1" xmlns="http://www.w3.org/2000/svg" xmlns:xlink="http://www.w3.org/1999/xlink" viewBox="0 0 1920 1080"><defs><style>.cls-1{fill:#808ec6;}.cls-2{fill:url(#Dégradé_sans_nom_29);}</style><linearGradient id="Dégradé_sans_nom_29" x1="1103.23" y1="369.45" x2="1103.23" y2="635.23" gradientUnits="userSpaceOnUse"><stop offset="0" stop-color="#ff79da"/><stop offset="1" stop-color="#9356dc"/></linearGradient></defs><polygon class="cls-1" points="829.88 466.04 829.88 466.02 829.88 466.06 829.88 466.04"/><path class="cls-2" d="M1112,560.27c0-12.76.1-19.69-.23-23.43a1,1,0,0,0,.79-1,1,1,0,0,0-1-1h-.06c0-.23-.1-.44-.16-.63l.07-.18h.15a1,1,0,0,0,1-1,1,1,0,0,0-.52-.85,69.64,69.64,0,0,0,2.45-12.8,376.45,376.45,0,0,0,1.07-55.27c-1.3-22.82-.19-48.77-1.78-49.57-10-5-22.11,15-24.61,46-2.29,28.47,6.9,66,8.44,72a.93.93,0,0,0-.15.48,1,1,0,0,0,1,1h.34a5.82,5.82,0,0,0-.22.81h-.12a1,1,0,0,0-1,1,1,1,0,0,0,.85,1c-.32,3.74-.22,10.67-.22,23.42,0,30.83-5.71,95.21-5.71,95.21a11.41,11.41,0,0,0,11.42,11.41h2.49a11.41,11.41,0,0,0,11.41-11.41S1112,591.13,1112,560.27Z"/></svg>